<svg version="1.1" id="extension-logo" name="extension-logo" xmlns="http://www.w3.org/2000/svg" xmlns:xlink="http://www.w3.org/1999/xlink" x="0px" y="0px"
	 viewBox="0 0 512 512" style="enable-background:new 0 0 512 512;" xml:space="preserve">
<defs>
<style type="text/css">
	.cls-1{filter: url(#filter);}
	.fillme{fill:#414141;}
	.st1{fill:url(#SVGID_1_);}
	.st2{fill:#848484;}
	.st3{fill:url(#SVGID_2_);}
	.st4{fill:#8EACDD;}
</style>
    <filter id="filter" filterUnits="userSpaceOnUse">
      <feOffset result="offset" dx="17.634" dy="24.271" in="SourceAlpha"/>
      <feGaussianBlur result="blur" stdDeviation="6.782"/>
      <feFlood result="flood" flood-opacity="0.75"/>
      <feComposite result="composite" operator="in" in2="blur"/>
      <feBlend result="blend" in="SourceGraphic"/>
    </filter>
</defs>
<g class="cls-1">
<path class="fillme" d="M397.7,81.49H112.97c-15.81,0-28.62,12.81-28.62,28.62V237v157.85c0,15.81,12.81,28.62,28.62,28.62H397.7
	c15.81,0,28.62-12.81,28.62-28.62V110.11C426.32,94.31,413.51,81.49,397.7,81.49z"/>
	<linearGradient id="SVGID_1_" gradientUnits="userSpaceOnUse" x1="283.4634" y1="234.0631" x2="427.3222" y2="234.0631">
		<stop  offset="0" style="stop-color:#FFFFFF"/>
		<stop  offset="0.3183" style="stop-color:#F7F7F7"/>
		<stop  offset="0.7971" style="stop-color:#E3E3E3"/>
		<stop  offset="1" style="stop-color:#D8D8D8"/>
	</linearGradient>
	<path class="st1" d="M283.46,465.24l121.18-35.19c13.92-4.04,22.68-15.87,22.68-30.8V105.71c0-14.93-8.76-29-22.68-36.61
		L283.46,2.89V465.24z"/>
		<path class="st2" d="M396.33,194.67l-31.04-7.54c-0.62,38.03-2.42,69.7-8.25,94.94c9.83,25.16,23.08,40.09,40.68,46.56
			c-1.18,3.28-2.61,9.9-3.33,14.32c-17.6-7-30.9-22.17-40.91-47.46c-6.68,20.29-16.99,35.8-33.71,46.28
			c-0.68-4.47-2.45-11.22-4.03-14.75c16.82-9.73,26.89-24.68,33.1-44.57c-6.99-22.45-11.97-50.95-15.52-86.53l6.02-2.84
			c2.84,30.34,7.11,55.24,13.02,75.43c4.57-21.97,6.04-49.5,6.65-82.9l-40.6-9.86l0-16.68l40.72,10.85
			c0.21-13.79,0.24-28.36,0.27-43.9l8.36,3.96c-0.18,2.31-0.78,3.53-1.99,3.61c-0.03,13.26-0.15,26.01-0.27,38.03l30.89,8.23
			L396.33,194.67z"/>
</g>
<linearGradient id="SVGID_2_" gradientUnits="userSpaceOnUse" x1="61.2886" y1="252.4797" x2="260.4061" y2="252.4797">
	<stop  offset="0.0969" style="stop-color:#414141;stop-opacity:0"/>
	<stop  offset="0.4752" style="stop-color:#1E1E1E;stop-opacity:0.2094"/>
	<stop  offset="0.7954" style="stop-color:#080808;stop-opacity:0.3867"/>
	<stop  offset="1" style="stop-color:#000000;stop-opacity:0.5"/>
</linearGradient>
<path class="st3" d="M283.46,81.49H112.79c-15.71,0-28.44,12.73-28.44,28.44V237v158.03c0,15.71,12.73,28.44,28.44,28.44h170.68
	V81.49z"/>
<path class="st4" d="M255.95,185.77l-36.69,104.66h64.2v15.33h-69.62l-17.89,51.58c-0.2,0.7-0.5,1.3-0.9,1.8
	c-0.4,0.51-0.95,0.93-1.65,1.28c-0.71,0.35-1.68,0.63-2.94,0.83c-1.25,0.2-2.83,0.3-4.73,0.3c-2.11,0-3.86-0.1-5.27-0.3
	c-1.4-0.2-2.43-0.55-3.08-1.05s-1-1.21-1.05-2.11s0.22-2.1,0.83-3.61l68.11-185.1c0.3-0.8,0.75-1.48,1.35-2.03
	c0.61-0.55,1.38-0.98,2.34-1.28c0.95-0.3,2.1-0.52,3.45-0.67c1.36-0.15,2.88-0.23,4.59-0.23c1.8,0,3.38,0.08,4.74,0.23
	c1.35,0.15,2.5,0.37,3.46,0.67c0.95,0.3,1.7,0.73,2.25,1.28s0.98,1.23,1.28,2.03l14.73,40.03v52.54l-27.36-76.18H255.95z"/>
</svg>
