<svg xmlns="http://www.w3.org/2000/svg" xmlns:xlink="http://www.w3.org/1999/xlink">
  <symbol id="settings" viewBox="0 0 512 512">
    <g>
      <path class="st0" d="M405.32,243.17l40.8-30.52l-10.36-31.88l-50.82-1.19l-15.68-21.72l15.07-48.68l-27.12-19.71l-41.82,28.91
                      L289.93,110l-16.41-48.21H240l-16.83,47.96h-0.01l-25.53,8.19l-41.61-29.36l-27.12,19.7l14.58,48.73l-15.83,21.59h-0.01v0.01
                      l-50.93,0.71L66.35,211.2l40.43,30.85l-0.1,26.78l-40.8,30.52l10.36,31.88l50.82,1.19l15.68,21.72l-15.07,48.68l27.12,19.71
                      l41.82-28.91l25.46,8.38l16.41,48.21H272l16.83-47.96h0.01l25.53-8.19l41.61,29.36l27.12-19.7l-14.58-48.73l15.83-21.59h0.01v-0.01
                      l50.93-0.71l10.36-31.88l-40.43-30.85L405.32,243.17z M256,301.28c-25.01,0-45.28-20.27-45.28-45.28s20.27-45.28,45.28-45.28
                      s45.28,20.27,45.28,45.28S281.01,301.28,256,301.28z" />
    </g>
  </symbol>
</svg>